{"glyphs":{"0":{"ha":1389,"x_min":174,"x_max":1389,"o":"m 521 -16 l 521 69 l 433 69 l 347 69 l 347 156 l 347 243 l 262 243 l 174 243 l 174 503 l 174 764 l 262 764 l 347 764 l 347 850 l 347 937 l 433 937 l 519 952 l 521 1025 l 521 1111 l 780 1111 l 1042 1111 l 1042 1025 l 1042 937 l 1127 937 l 1215 937 l 1215 850 l 1215 764 l 1303 764 l 1389 764 l 1389 503 l 1389 243 l 1303 243 l 1215 243 l 1215 156 l 1215 69 l 1127 69 l 1039 53 l 1042 -16 l 1042 -104 l 780 -104 l 521 -104 l 521 -16 m 1042 416 l 1042 764 l 956 764 l 868 764 l 868 850 l 868 937 l 694 937 l 522 936 l 522 591 l 521 243 l 609 243 l 694 243 l 694 156 l 694 69 l 868 69 l 1042 69 l 1042 416 z "},"1":{"ha":1389,"x_min":347,"x_max":1389,"o":"m 347 -16 l 347 69 l 521 69 l 694 69 l 694 416 l 694 764 l 609 764 l 521 764 l 521 850 l 521 937 l 609 937 l 694 937 l 694 1025 l 694 1111 l 868 1111 l 1042 1111 l 1042 590 l 1042 69 l 1215 69 l 1389 69 l 1389 -16 l 1389 -104 l 868 -104 l 347 -104 l 347 -16 z "},"2":{"ha":1389,"x_min":174,"x_max":1389,"o":"m 174 69 l 174 243 l 262 243 l 347 243 l 347 331 l 347 416 l 433 416 l 521 416 l 521 503 l 521 590 l 694 590 l 868 590 l 868 678 l 868 764 l 956 764 l 1042 764 l 1042 850 l 1042 937 l 780 937 l 521 937 l 521 850 l 521 764 l 347 764 l 174 764 l 174 850 l 174 937 l 262 937 l 347 937 l 347 1025 l 347 1111 l 780 1111 l 1215 1111 l 1215 1025 l 1215 937 l 1303 937 l 1389 937 l 1389 764 l 1389 590 l 1303 590 l 1215 590 l 1215 503 l 1215 416 l 1127 416 l 1042 416 l 1042 331 l 1042 243 l 868 243 l 694 243 l 694 156 l 694 69 l 1042 69 l 1389 69 l 1389 -16 l 1389 -104 l 780 -104 l 174 -104 l 174 69 z "},"3":{"ha":1389,"x_min":174,"x_max":1389,"o":"m 347 -16 l 347 69 l 262 69 l 174 69 l 174 156 l 174 243 l 347 243 l 521 243 l 521 156 l 521 69 l 780 69 l 1042 69 l 1042 243 l 1042 416 l 780 416 l 521 416 l 521 503 l 521 590 l 609 590 l 694 590 l 694 678 l 694 764 l 780 764 l 868 764 l 868 850 l 868 937 l 609 937 l 347 937 l 347 1025 l 347 1111 l 868 1111 l 1389 1111 l 1389 1025 l 1389 937 l 1303 937 l 1215 937 l 1215 850 l 1215 764 l 1127 764 l 1042 764 l 1042 678 l 1042 590 l 1127 590 l 1215 590 l 1215 503 l 1215 416 l 1303 416 l 1389 416 l 1389 243 l 1389 69 l 1303 69 l 1215 69 l 1215 -16 l 1215 -104 l 780 -104 l 347 -104 l 347 -16 z "},"4":{"ha":1356,"x_min":141,"x_max":1356,"o":"m 836 65 l 836 239 l 488 239 l 141 239 l 141 412 l 141 586 l 228 586 l 315 586 l 315 673 l 315 760 l 401 760 l 488 760 l 488 846 l 488 933 l 575 933 l 662 933 l 662 1020 l 662 1107 l 922 1107 l 1183 1107 l 1183 760 l 1183 412 l 1270 412 l 1356 412 l 1356 326 l 1356 239 l 1270 239 l 1183 239 l 1183 65 l 1183 -109 l 1009 -109 l 836 -109 l 836 65 m 836 586 l 836 760 l 749 760 l 662 760 l 662 673 l 662 586 l 575 586 l 488 586 l 488 499 l 488 412 l 662 412 l 836 412 l 836 586 z "},"5":{"ha":1389,"x_min":174,"x_max":1389,"o":"m 347 -18 l 347 69 l 260 69 l 174 69 l 174 156 l 174 243 l 347 243 l 521 243 l 521 156 l 521 69 l 781 69 l 1042 69 l 1042 330 l 1042 590 l 608 590 l 174 590 l 174 850 l 174 1111 l 694 1111 l 1215 1111 l 1215 1024 l 1215 937 l 868 937 l 521 937 l 521 850 l 521 764 l 868 764 l 1215 764 l 1215 677 l 1215 590 l 1302 590 l 1389 590 l 1389 330 l 1389 69 l 1302 69 l 1215 69 l 1215 -18 l 1215 -104 l 781 -104 l 347 -104 l 347 -18 z "},"6":{"ha":1389,"x_min":174,"x_max":1389,"o":"m 347 -18 l 347 69 l 260 69 l 174 69 l 174 416 l 174 764 l 260 764 l 347 764 l 347 850 l 347 937 l 434 937 l 521 937 l 521 1024 l 521 1111 l 868 1111 l 1215 1111 l 1215 1024 l 1215 937 l 955 937 l 694 937 l 694 850 l 694 764 l 608 764 l 521 764 l 521 677 l 521 590 l 868 590 l 1215 590 l 1215 503 l 1215 416 l 1302 416 l 1389 416 l 1389 243 l 1389 69 l 1302 69 l 1215 69 l 1215 -18 l 1215 -104 l 781 -104 l 347 -104 l 347 -18 m 1042 243 l 1042 416 l 781 416 l 521 416 l 521 243 l 521 69 l 781 69 l 1042 69 l 1042 243 z "},"7":{"ha":1389,"x_min":174,"x_max":1389,"o":"m 521 156 l 521 416 l 608 416 l 694 416 l 694 503 l 694 590 l 781 590 l 868 590 l 868 677 l 868 764 l 955 764 l 1042 764 l 1042 850 l 1042 937 l 781 937 l 521 937 l 521 850 l 521 764 l 347 764 l 174 764 l 174 937 l 174 1111 l 781 1111 l 1389 1111 l 1389 937 l 1389 764 l 1302 764 l 1215 764 l 1215 677 l 1215 590 l 1128 590 l 1042 590 l 1042 503 l 1042 416 l 955 416 l 868 416 l 868 156 l 868 -104 l 694 -104 l 521 -104 l 521 156 z "},"8":{"ha":1389,"x_min":174,"x_max":1389,"o":"m 347 -18 l 347 69 l 260 69 l 174 69 l 174 243 l 174 416 l 260 416 l 347 416 l 347 503 l 347 590 l 260 590 l 174 590 l 174 764 l 174 937 l 260 937 l 347 937 l 347 1024 l 347 1111 l 694 1111 l 1042 1111 l 1042 1024 l 1042 937 l 1128 937 l 1215 937 l 1215 764 l 1215 590 l 1128 590 l 1042 590 l 1042 503 l 1042 416 l 1215 416 l 1389 416 l 1389 243 l 1389 69 l 1302 69 l 1215 69 l 1215 -18 l 1215 -104 l 781 -104 l 347 -104 l 347 -18 m 1042 156 l 1042 243 l 868 243 l 694 243 l 694 330 l 694 416 l 521 416 l 347 416 l 347 243 l 347 69 l 694 69 l 1042 69 l 1042 156 m 1042 764 l 1042 937 l 781 937 l 521 937 l 521 850 l 521 764 l 608 764 l 694 764 l 694 677 l 694 590 l 868 590 l 1042 590 l 1042 764 z "},"9":{"ha":1389,"x_min":174,"x_max":1389,"o":"m 347 -18 l 347 69 l 608 69 l 868 69 l 868 156 l 868 243 l 955 243 l 1042 243 l 1042 330 l 1042 416 l 694 416 l 347 416 l 347 503 l 347 590 l 260 590 l 174 590 l 174 764 l 174 937 l 260 937 l 347 937 l 347 1024 l 347 1111 l 781 1111 l 1215 1111 l 1215 1024 l 1215 937 l 1302 937 l 1389 937 l 1389 590 l 1389 243 l 1302 243 l 1215 243 l 1215 156 l 1215 69 l 1128 69 l 1042 69 l 1042 -18 l 1042 -104 l 694 -104 l 347 -104 l 347 -18 m 1042 764 l 1042 937 l 781 937 l 521 937 l 521 764 l 521 590 l 781 590 l 1042 590 l 1042 764 z "}," ":{"ha":1389,"x_min":0,"x_max":0,"o":""},"!":{"ha":1389,"x_min":347,"x_max":1042,"o":"m 347 -104 l 347 69 l 434 69 l 521 69 l 521 -104 l 521 -278 l 434 -278 l 347 -278 l 347 -104 m 347 503 l 347 764 l 434 764 l 521 764 l 521 937 l 521 1111 l 781 1111 l 1042 1111 l 1042 937 l 1042 764 l 955 764 l 868 764 l 868 677 l 868 590 l 781 590 l 694 590 l 694 503 l 694 416 l 608 416 l 521 416 l 521 330 l 521 243 l 434 243 l 347 243 l 347 503 z "},"*":{"ha":1389,"x_min":68,"x_max":1289,"o":"m 203 400 l 68 400 l 68 621 l 68 875 l 203 875 l 203 943 l 203 1010 l 395 1010 l 543 1010 l 543 875 l 610 875 l 610 739 l 678 739 l 746 739 l 746 875 l 814 875 l 814 1010 l 1006 1010 l 1153 1010 l 1153 875 l 1221 875 l 1289 875 l 1289 604 l 1289 400 l 1153 400 l 1153 264 l 1017 264 l 1017 129 l 882 129 l 882 -7 l 746 -7 l 746 -142 l 610 -142 l 610 -7 l 475 -7 l 475 129 l 339 129 l 339 264 l 203 264 l 203 400 z "},"-":{"ha":1389,"x_min":0,"x_max":1389,"o":"m 0 503 l 0 590 l 694 590 l 1389 590 l 1389 503 l 1389 416 l 694 416 l 0 416 l 0 503 z "},".":{"ha":1389,"x_min":347,"x_max":694,"o":"m 347 69 l 347 243 l 521 243 l 694 243 l 694 69 l 694 -104 l 521 -104 l 347 -104 l 347 69 z "},":":{"ha":1389,"x_min":339,"x_max":678,"o":"m 339 61 l 339 197 l 521 197 l 678 197 l 678 61 l 678 -142 l 511 -142 l 339 -142 l 339 61 m 339 604 l 339 739 l 521 739 l 678 739 l 678 604 l 678 400 l 511 400 l 339 400 l 339 604 z "},"@":{"ha":1389,"x_min":129,"x_max":1335,"o":"m 415 214 l 130 214 l 130 609 l 415 609 l 415 532 l 232 532 l 232 464 l 403 464 l 403 388 l 232 388 l 232 290 l 415 290 l 415 214 m 860 214 l 762 214 l 594 484 l 594 214 l 500 214 l 500 609 l 623 609 l 766 382 l 766 609 l 860 609 l 860 214 m 1333 411 q 1308 312 1333 355 q 1245 245 1283 269 q 1182 221 1217 228 q 1100 214 1147 214 l 960 214 l 960 609 l 1104 609 q 1187 601 1152 609 q 1246 578 1222 593 q 1310 510 1287 552 q 1333 411 1333 468 m 1216 346 q 1222 359 1216 346 q 1229 412 1229 373 q 1215 478 1229 450 q 1169 521 1200 506 q 1138 532 1154 529 q 1088 534 1122 534 l 1062 534 l 1062 288 l 1088 288 q 1141 291 1124 288 q 1175 304 1158 294 q 1216 346 1203 319 z "},"A":{"ha":1386,"x_min":85,"x_max":1301,"o":"m 85 331 l 85 764 l 174 764 l 259 764 l 259 850 l 259 937 l 346 937 l 433 937 l 433 1025 l 433 1111 l 693 1111 l 954 1111 l 954 1025 l 954 937 l 1040 937 l 1127 937 l 1127 850 l 1127 764 l 1215 764 l 1301 764 l 1301 331 l 1301 -104 l 1127 -104 l 954 -104 l 954 69 l 954 243 l 693 243 l 433 243 l 433 69 l 433 -104 l 259 -104 l 85 -104 l 85 331 m 954 590 l 954 764 l 868 764 l 780 764 l 780 850 l 780 937 l 693 937 l 606 937 l 606 850 l 606 764 l 521 764 l 433 764 l 433 590 l 433 416 l 693 416 l 954 416 l 954 590 z "},"B":{"ha":1389,"x_min":174,"x_max":1389,"o":"m 174 503 l 174 1111 l 694 1111 l 1215 1111 l 1215 1025 l 1215 937 l 1303 937 l 1389 937 l 1389 764 l 1389 590 l 1303 590 l 1215 590 l 1215 503 l 1215 416 l 1303 416 l 1389 416 l 1389 243 l 1389 69 l 1303 69 l 1215 69 l 1215 -16 l 1215 -104 l 694 -104 l 174 -104 l 174 503 m 1042 243 l 1042 416 l 780 416 l 521 416 l 521 243 l 521 69 l 780 69 l 1042 69 l 1042 243 m 1042 764 l 1042 937 l 780 937 l 521 937 l 521 764 l 521 590 l 780 590 l 1042 590 l 1042 764 z "},"C":{"ha":1389,"x_min":174,"x_max":1389,"o":"m 521 -16 l 521 69 l 433 69 l 347 69 l 347 156 l 347 243 l 262 243 l 174 243 l 174 503 l 174 764 l 262 764 l 347 764 l 347 850 l 347 937 l 433 937 l 521 937 l 521 1025 l 521 1111 l 868 1111 l 1215 1111 l 1215 1025 l 1215 937 l 1303 937 l 1389 937 l 1389 850 l 1389 764 l 1215 764 l 1042 764 l 1042 850 l 1042 937 l 868 937 l 694 937 l 694 850 l 694 764 l 609 764 l 521 764 l 521 503 l 521 243 l 609 243 l 694 243 l 694 156 l 694 69 l 868 69 l 1042 69 l 1042 156 l 1042 243 l 1215 243 l 1389 243 l 1389 156 l 1389 69 l 1303 69 l 1215 69 l 1215 -16 l 1215 -104 l 868 -104 l 521 -104 l 521 -16 z "},"D":{"ha":1389,"x_min":174,"x_max":1389,"o":"m 174 503 l 174 1111 l 608 1111 l 1042 1111 l 1042 1024 l 1042 937 l 1128 937 l 1215 937 l 1215 850 l 1215 764 l 1302 764 l 1389 764 l 1389 503 l 1389 243 l 1302 243 l 1215 243 l 1215 156 l 1215 69 l 1128 69 l 1042 69 l 1042 -18 l 1042 -104 l 608 -104 l 174 -104 l 174 503 m 868 156 l 868 243 l 955 243 l 1042 243 l 1042 503 l 1042 764 l 955 764 l 868 764 l 868 850 l 868 937 l 694 937 l 521 937 l 521 503 l 521 69 l 694 69 l 868 69 l 868 156 z "},"E":{"ha":1389,"x_min":347,"x_max":1389,"o":"m 347 503 l 347 1111 l 868 1111 l 1389 1111 l 1389 1024 l 1389 937 l 1042 937 l 694 937 l 694 764 l 694 590 l 955 590 l 1215 590 l 1215 503 l 1215 416 l 955 416 l 694 416 l 694 243 l 694 69 l 1042 69 l 1389 69 l 1389 -18 l 1389 -104 l 868 -104 l 347 -104 l 347 503 z "},"F":{"ha":1389,"x_min":174,"x_max":1389,"o":"m 174 503 l 174 1111 l 781 1111 l 1389 1111 l 1389 1024 l 1389 937 l 955 937 l 521 937 l 521 764 l 521 590 l 868 590 l 1215 590 l 1215 503 l 1215 416 l 868 416 l 521 416 l 521 156 l 521 -104 l 347 -104 l 174 -104 l 174 503 z "},"G":{"ha":1389,"x_min":174,"x_max":1389,"o":"m 521 -18 l 521 69 l 434 69 l 347 69 l 347 156 l 347 243 l 260 243 l 174 243 l 174 503 l 174 764 l 260 764 l 347 764 l 347 850 l 347 937 l 434 937 l 521 937 l 521 1024 l 521 1111 l 955 1111 l 1389 1111 l 1389 1024 l 1389 937 l 1042 937 l 694 937 l 694 850 l 694 764 l 608 764 l 521 764 l 521 503 l 521 243 l 608 243 l 694 243 l 694 156 l 694 69 l 868 69 l 1042 69 l 1042 243 l 1042 416 l 955 416 l 868 416 l 868 503 l 868 590 l 1128 590 l 1389 590 l 1389 243 l 1389 -104 l 955 -104 l 521 -104 l 521 -18 z "},"H":{"ha":1389,"x_min":174,"x_max":1389,"o":"m 174 503 l 174 1111 l 347 1111 l 521 1111 l 521 850 l 521 590 l 781 590 l 1042 590 l 1042 850 l 1042 1111 l 1215 1111 l 1389 1111 l 1389 503 l 1389 -104 l 1215 -104 l 1042 -104 l 1042 156 l 1042 416 l 781 416 l 521 416 l 521 156 l 521 -104 l 347 -104 l 174 -104 l 174 503 z "},"I":{"ha":1389,"x_min":347,"x_max":1389,"o":"m 347 -18 l 347 69 l 521 69 l 694 69 l 694 503 l 694 937 l 521 937 l 347 937 l 347 1024 l 347 1111 l 868 1111 l 1389 1111 l 1389 1024 l 1389 937 l 1215 937 l 1042 937 l 1042 503 l 1042 69 l 1215 69 l 1389 69 l 1389 -18 l 1389 -104 l 868 -104 l 347 -104 l 347 -18 z "},"J":{"ha":1389,"x_min":174,"x_max":1389,"o":"m 347 -18 l 347 69 l 260 69 l 174 69 l 174 156 l 174 243 l 347 243 l 521 243 l 521 156 l 521 69 l 781 69 l 1042 69 l 1042 590 l 1042 1111 l 1215 1111 l 1389 1111 l 1389 590 l 1389 69 l 1302 69 l 1215 69 l 1215 -18 l 1215 -104 l 781 -104 l 347 -104 l 347 -18 z "},"K":{"ha":1389,"x_min":174,"x_max":1389,"o":"m 174 503 l 174 1111 l 347 1111 l 521 1111 l 521 850 l 521 590 l 608 590 l 694 590 l 694 677 l 694 764 l 781 764 l 868 764 l 868 850 l 868 937 l 955 937 l 1042 937 l 1042 1024 l 1042 1111 l 1215 1111 l 1389 1111 l 1389 1024 l 1389 937 l 1302 937 l 1215 937 l 1215 850 l 1215 764 l 1128 764 l 1042 764 l 1042 677 l 1042 590 l 955 590 l 868 590 l 868 503 l 868 416 l 955 416 l 1042 416 l 1042 330 l 1042 243 l 1128 243 l 1215 243 l 1215 156 l 1215 69 l 1302 69 l 1389 69 l 1389 -18 l 1389 -104 l 1128 -104 l 868 -104 l 868 -18 l 868 69 l 781 69 l 694 69 l 694 156 l 694 243 l 608 243 l 521 243 l 521 69 l 521 -104 l 347 -104 l 174 -104 l 174 503 z "},"L":{"ha":1389,"x_min":347,"x_max":1389,"o":"m 347 503 l 347 1111 l 521 1111 l 694 1111 l 694 590 l 694 69 l 1042 69 l 1389 69 l 1389 -18 l 1389 -104 l 868 -104 l 347 -104 l 347 503 z "},"M":{"ha":1389,"x_min":174,"x_max":1389,"o":"m 174 503 l 174 1111 l 347 1111 l 521 1111 l 521 1024 l 521 937 l 608 937 l 694 937 l 694 850 l 694 764 l 781 764 l 868 764 l 868 850 l 868 937 l 955 937 l 1042 937 l 1042 1024 l 1042 1111 l 1215 1111 l 1389 1111 l 1389 503 l 1389 -104 l 1215 -104 l 1042 -104 l 1042 156 l 1042 416 l 955 416 l 868 416 l 868 330 l 868 243 l 781 243 l 694 243 l 694 330 l 694 416 l 608 416 l 521 416 l 521 156 l 521 -104 l 347 -104 l 174 -104 l 174 503 z "},"N":{"ha":1389,"x_min":174,"x_max":1345,"o":"m 174 503 l 174 1111 l 347 1111 l 521 1111 l 521 1024 l 521 937 l 608 937 l 694 937 l 694 850 l 694 764 l 781 764 l 868 764 l 868 677 l 868 590 l 955 590 l 1042 590 l 1042 850 l 1042 1111 l 1194 1111 l 1345 1111 l 1345 503 l 1345 -104 l 1194 -104 l 1042 -104 l 1042 -18 l 1042 69 l 955 69 l 868 69 l 868 156 l 868 243 l 781 243 l 694 243 l 694 330 l 694 416 l 608 416 l 521 416 l 521 156 l 521 -104 l 347 -104 l 174 -104 l 174 503 z "},"O":{"ha":1389,"x_min":174,"x_max":1389,"o":"m 347 -18 l 347 69 l 260 69 l 174 69 l 174 503 l 174 937 l 260 937 l 347 937 l 347 1024 l 347 1111 l 781 1111 l 1215 1111 l 1215 1024 l 1215 937 l 1302 937 l 1389 937 l 1389 503 l 1389 69 l 1302 69 l 1215 69 l 1215 -18 l 1215 -104 l 781 -104 l 347 -104 l 347 -18 m 1042 503 l 1042 937 l 781 937 l 521 937 l 521 503 l 521 69 l 781 69 l 1042 69 l 1042 503 z "},"P":{"ha":1389,"x_min":174,"x_max":1389,"o":"m 174 503 l 174 1111 l 694 1111 l 1215 1111 l 1215 1024 l 1215 937 l 1302 937 l 1389 937 l 1389 677 l 1389 416 l 1302 416 l 1215 416 l 1215 330 l 1215 243 l 868 243 l 521 243 l 521 69 l 521 -104 l 347 -104 l 174 -104 l 174 503 m 1042 677 l 1042 937 l 781 937 l 521 937 l 521 677 l 521 416 l 781 416 l 1042 416 l 1042 677 z "},"Q":{"ha":1389,"x_min":174,"x_max":1389,"o":"m 347 -18 l 347 69 l 260 69 l 174 69 l 174 503 l 174 937 l 260 937 l 347 937 l 347 1024 l 347 1111 l 781 1111 l 1215 1111 l 1215 1024 l 1215 937 l 1302 937 l 1389 937 l 1389 590 l 1389 243 l 1302 243 l 1215 243 l 1215 156 l 1215 69 l 1302 69 l 1389 69 l 1389 -18 l 1389 -104 l 1302 -104 l 1215 -104 l 1215 -18 l 1215 69 l 1128 69 l 1042 69 l 1042 -18 l 1042 -104 l 694 -104 l 347 -104 l 347 -18 m 868 156 l 868 243 l 781 243 l 694 243 l 694 330 l 694 416 l 868 416 l 1042 416 l 1042 677 l 1042 937 l 781 937 l 521 937 l 521 503 l 521 69 l 694 69 l 868 69 l 868 156 z "},"R":{"ha":1389,"x_min":174,"x_max":1389,"o":"m 174 503 l 174 1111 l 694 1111 l 1215 1111 l 1215 1024 l 1215 937 l 1302 937 l 1389 937 l 1389 677 l 1389 416 l 1215 416 l 1042 416 l 1042 330 l 1042 243 l 1128 243 l 1215 243 l 1215 156 l 1215 69 l 1302 69 l 1389 69 l 1389 -18 l 1389 -104 l 1128 -104 l 868 -104 l 868 -18 l 868 69 l 781 69 l 694 69 l 694 156 l 694 243 l 608 243 l 521 243 l 521 69 l 521 -104 l 347 -104 l 174 -104 l 174 503 m 868 503 l 868 590 l 955 590 l 1042 590 l 1042 764 l 1042 937 l 781 937 l 521 937 l 521 677 l 521 416 l 694 416 l 868 416 l 868 503 z "},"S":{"ha":1389,"x_min":174,"x_max":1389,"o":"m 347 -18 l 347 69 l 260 69 l 174 69 l 174 156 l 174 243 l 347 243 l 521 243 l 521 156 l 521 69 l 781 69 l 1042 69 l 1042 243 l 1042 416 l 694 416 l 347 416 l 347 503 l 347 590 l 260 590 l 174 590 l 174 764 l 174 937 l 260 937 l 347 937 l 347 1024 l 347 1111 l 694 1111 l 1042 1111 l 1042 1024 l 1042 937 l 1128 937 l 1215 937 l 1215 850 l 1215 764 l 1042 764 l 868 764 l 868 850 l 868 937 l 694 937 l 521 937 l 521 764 l 521 590 l 868 590 l 1215 590 l 1215 503 l 1215 416 l 1302 416 l 1389 416 l 1389 243 l 1389 69 l 1302 69 l 1215 69 l 1215 -18 l 1215 -104 l 781 -104 l 347 -104 l 347 -18 z "},"T":{"ha":1389,"x_min":347,"x_max":1389,"o":"m 694 416 l 694 937 l 521 937 l 347 937 l 347 1024 l 347 1111 l 868 1111 l 1389 1111 l 1389 1024 l 1389 937 l 1215 937 l 1042 937 l 1042 416 l 1042 -104 l 868 -104 l 694 -104 l 694 416 z "},"U":{"ha":1389,"x_min":174,"x_max":1389,"o":"m 347 -18 l 347 69 l 260 69 l 174 69 l 174 590 l 174 1111 l 347 1111 l 521 1111 l 521 590 l 521 69 l 781 69 l 1042 69 l 1042 590 l 1042 1111 l 1215 1111 l 1389 1111 l 1389 590 l 1389 69 l 1302 69 l 1215 69 l 1215 -18 l 1215 -104 l 781 -104 l 347 -104 l 347 -18 z "},"V":{"ha":1389,"x_min":174,"x_max":1389,"o":"m 694 -18 l 694 69 l 608 69 l 521 69 l 521 156 l 521 243 l 434 243 l 347 243 l 347 330 l 347 416 l 260 416 l 174 416 l 174 764 l 174 1111 l 347 1111 l 521 1111 l 521 850 l 521 590 l 608 590 l 694 590 l 694 503 l 694 416 l 781 416 l 868 416 l 868 503 l 868 590 l 955 590 l 1042 590 l 1042 850 l 1042 1111 l 1215 1111 l 1389 1111 l 1389 764 l 1389 416 l 1302 416 l 1215 416 l 1215 330 l 1215 243 l 1128 243 l 1042 243 l 1042 156 l 1042 69 l 955 69 l 868 69 l 868 -18 l 868 -104 l 781 -104 l 694 -104 l 694 -18 z "},"W":{"ha":1389,"x_min":174,"x_max":1389,"o":"m 174 503 l 174 1111 l 347 1111 l 521 1111 l 521 850 l 521 590 l 608 590 l 694 590 l 694 677 l 694 764 l 781 764 l 868 764 l 868 677 l 868 590 l 955 590 l 1042 590 l 1042 850 l 1042 1111 l 1215 1111 l 1389 1111 l 1389 503 l 1389 -104 l 1215 -104 l 1042 -104 l 1042 -18 l 1042 69 l 955 69 l 868 69 l 868 156 l 868 243 l 781 243 l 694 243 l 694 156 l 694 69 l 608 69 l 521 69 l 521 -18 l 521 -104 l 347 -104 l 174 -104 l 174 503 z "},"X":{"ha":1389,"x_min":174,"x_max":1389,"o":"m 174 69 l 174 243 l 260 243 l 347 243 l 347 330 l 347 416 l 434 416 l 521 416 l 521 503 l 521 590 l 434 590 l 347 590 l 347 677 l 347 764 l 260 764 l 174 764 l 174 937 l 174 1111 l 347 1111 l 521 1111 l 521 1024 l 521 937 l 608 937 l 694 937 l 694 850 l 694 764 l 781 764 l 868 764 l 868 850 l 868 937 l 955 937 l 1042 937 l 1042 1024 l 1042 1111 l 1215 1111 l 1389 1111 l 1389 937 l 1389 764 l 1302 764 l 1215 764 l 1215 677 l 1215 590 l 1128 590 l 1042 590 l 1042 503 l 1042 416 l 1128 416 l 1215 416 l 1215 330 l 1215 243 l 1302 243 l 1389 243 l 1389 69 l 1389 -104 l 1215 -104 l 1042 -104 l 1042 -18 l 1042 69 l 955 69 l 868 69 l 868 156 l 868 243 l 781 243 l 694 243 l 694 156 l 694 69 l 608 69 l 521 69 l 521 -18 l 521 -104 l 347 -104 l 174 -104 l 174 69 z "},"Y":{"ha":1389,"x_min":347,"x_max":1389,"o":"m 694 156 l 694 416 l 608 416 l 521 416 l 521 503 l 521 590 l 434 590 l 347 590 l 347 850 l 347 1111 l 521 1111 l 694 1111 l 694 850 l 694 590 l 868 590 l 1042 590 l 1042 850 l 1042 1111 l 1215 1111 l 1389 1111 l 1389 850 l 1389 590 l 1302 590 l 1215 590 l 1215 503 l 1215 416 l 1128 416 l 1042 416 l 1042 156 l 1042 -104 l 868 -104 l 694 -104 l 694 156 z "},"Z":{"ha":1389,"x_min":174,"x_max":1389,"o":"m 174 69 l 174 243 l 260 243 l 347 243 l 347 330 l 347 416 l 434 416 l 521 416 l 521 503 l 521 590 l 608 590 l 694 590 l 694 677 l 694 764 l 781 764 l 868 764 l 868 850 l 868 937 l 521 937 l 174 937 l 174 1024 l 174 1111 l 781 1111 l 1389 1111 l 1389 937 l 1389 764 l 1302 764 l 1215 764 l 1215 677 l 1215 590 l 1128 590 l 1042 590 l 1042 503 l 1042 416 l 955 416 l 868 416 l 868 330 l 868 243 l 781 243 l 694 243 l 694 156 l 694 69 l 1042 69 l 1389 69 l 1389 -18 l 1389 -104 l 781 -104 l 174 -104 l 174 69 z "},"[":{"ha":1389,"x_min":174,"x_max":1215,"o":"m 174 -104 l 174 69 l 260 69 l 347 69 l 347 -18 l 347 -104 l 694 -104 l 1042 -104 l 1042 -18 l 1042 69 l 1128 69 l 1215 69 l 1215 -104 l 1215 -278 l 694 -278 l 174 -278 l 174 -104 z "},"a":{"ha":1386,"x_min":85,"x_max":1301,"o":"m 85 331 l 85 764 l 174 764 l 259 764 l 259 850 l 259 937 l 346 937 l 433 937 l 433 1025 l 433 1111 l 693 1111 l 954 1111 l 954 1025 l 954 937 l 1040 937 l 1127 937 l 1127 850 l 1127 764 l 1215 764 l 1301 764 l 1301 331 l 1301 -104 l 1127 -104 l 954 -104 l 954 69 l 954 243 l 693 243 l 433 243 l 433 69 l 433 -104 l 259 -104 l 85 -104 l 85 331 m 954 590 l 954 764 l 868 764 l 780 764 l 780 850 l 780 937 l 693 937 l 606 937 l 606 850 l 606 764 l 521 764 l 433 764 l 433 590 l 433 416 l 693 416 l 954 416 l 954 590 z "},"b":{"ha":1389,"x_min":174,"x_max":1389,"o":"m 174 503 l 174 1111 l 694 1111 l 1215 1111 l 1215 1025 l 1215 937 l 1303 937 l 1389 937 l 1389 764 l 1389 590 l 1303 590 l 1215 590 l 1215 503 l 1215 416 l 1303 416 l 1389 416 l 1389 243 l 1389 69 l 1303 69 l 1215 69 l 1215 -16 l 1215 -104 l 694 -104 l 174 -104 l 174 503 m 1042 243 l 1042 416 l 780 416 l 521 416 l 521 243 l 521 69 l 780 69 l 1042 69 l 1042 243 m 1042 764 l 1042 937 l 780 937 l 521 937 l 521 764 l 521 590 l 780 590 l 1042 590 l 1042 764 z "},"c":{"ha":1389,"x_min":174,"x_max":1389,"o":"m 521 -16 l 521 69 l 433 69 l 347 69 l 347 156 l 347 243 l 262 243 l 174 243 l 174 503 l 174 764 l 262 764 l 347 764 l 347 850 l 347 937 l 433 937 l 521 937 l 521 1025 l 521 1111 l 868 1111 l 1215 1111 l 1215 1025 l 1215 937 l 1303 937 l 1389 937 l 1389 850 l 1389 764 l 1215 764 l 1042 764 l 1042 850 l 1042 937 l 868 937 l 694 937 l 694 850 l 694 764 l 609 764 l 521 764 l 521 503 l 521 243 l 609 243 l 694 243 l 694 156 l 694 69 l 868 69 l 1042 69 l 1042 156 l 1042 243 l 1215 243 l 1389 243 l 1389 156 l 1389 69 l 1303 69 l 1215 69 l 1215 -16 l 1215 -104 l 868 -104 l 521 -104 l 521 -16 z "},"d":{"ha":1389,"x_min":174,"x_max":1389,"o":"m 174 503 l 174 1111 l 608 1111 l 1042 1111 l 1042 1024 l 1042 937 l 1128 937 l 1215 937 l 1215 850 l 1215 764 l 1302 764 l 1389 764 l 1389 503 l 1389 243 l 1302 243 l 1215 243 l 1215 156 l 1215 69 l 1128 69 l 1042 69 l 1042 -18 l 1042 -104 l 608 -104 l 174 -104 l 174 503 m 868 156 l 868 243 l 955 243 l 1042 243 l 1042 503 l 1042 764 l 955 764 l 868 764 l 868 850 l 868 937 l 694 937 l 521 937 l 521 503 l 521 69 l 694 69 l 868 69 l 868 156 z "},"e":{"ha":1389,"x_min":347,"x_max":1389,"o":"m 347 503 l 347 1111 l 868 1111 l 1389 1111 l 1389 1024 l 1389 937 l 1042 937 l 694 937 l 694 764 l 694 590 l 955 590 l 1215 590 l 1215 503 l 1215 416 l 955 416 l 694 416 l 694 243 l 694 69 l 1042 69 l 1389 69 l 1389 -18 l 1389 -104 l 868 -104 l 347 -104 l 347 503 z "},"f":{"ha":1389,"x_min":174,"x_max":1389,"o":"m 174 503 l 174 1111 l 781 1111 l 1389 1111 l 1389 1024 l 1389 937 l 955 937 l 521 937 l 521 764 l 521 590 l 868 590 l 1215 590 l 1215 503 l 1215 416 l 868 416 l 521 416 l 521 156 l 521 -104 l 347 -104 l 174 -104 l 174 503 z "},"g":{"ha":1389,"x_min":174,"x_max":1389,"o":"m 521 -18 l 521 69 l 434 69 l 347 69 l 347 156 l 347 243 l 260 243 l 174 243 l 174 503 l 174 764 l 260 764 l 347 764 l 347 850 l 347 937 l 434 937 l 521 937 l 521 1024 l 521 1111 l 955 1111 l 1389 1111 l 1389 1024 l 1389 937 l 1042 937 l 694 937 l 694 850 l 694 764 l 608 764 l 521 764 l 521 503 l 521 243 l 608 243 l 694 243 l 694 156 l 694 69 l 868 69 l 1042 69 l 1042 243 l 1042 416 l 955 416 l 868 416 l 868 503 l 868 590 l 1128 590 l 1389 590 l 1389 243 l 1389 -104 l 955 -104 l 521 -104 l 521 -18 z "},"h":{"ha":1389,"x_min":174,"x_max":1389,"o":"m 174 503 l 174 1111 l 347 1111 l 521 1111 l 521 850 l 521 590 l 781 590 l 1042 590 l 1042 850 l 1042 1111 l 1215 1111 l 1389 1111 l 1389 503 l 1389 -104 l 1215 -104 l 1042 -104 l 1042 156 l 1042 416 l 781 416 l 521 416 l 521 156 l 521 -104 l 347 -104 l 174 -104 l 174 503 z "},"i":{"ha":1389,"x_min":347,"x_max":1389,"o":"m 347 -18 l 347 69 l 521 69 l 694 69 l 694 503 l 694 937 l 521 937 l 347 937 l 347 1024 l 347 1111 l 868 1111 l 1389 1111 l 1389 1024 l 1389 937 l 1215 937 l 1042 937 l 1042 503 l 1042 69 l 1215 69 l 1389 69 l 1389 -18 l 1389 -104 l 868 -104 l 347 -104 l 347 -18 z "},"j":{"ha":1389,"x_min":174,"x_max":1389,"o":"m 347 -18 l 347 69 l 260 69 l 174 69 l 174 156 l 174 243 l 347 243 l 521 243 l 521 156 l 521 69 l 781 69 l 1042 69 l 1042 590 l 1042 1111 l 1215 1111 l 1389 1111 l 1389 590 l 1389 69 l 1302 69 l 1215 69 l 1215 -18 l 1215 -104 l 781 -104 l 347 -104 l 347 -18 z "},"k":{"ha":1389,"x_min":174,"x_max":1389,"o":"m 174 503 l 174 1111 l 347 1111 l 521 1111 l 521 850 l 521 590 l 608 590 l 694 590 l 694 677 l 694 764 l 781 764 l 868 764 l 868 850 l 868 937 l 955 937 l 1042 937 l 1042 1024 l 1042 1111 l 1215 1111 l 1389 1111 l 1389 1024 l 1389 937 l 1302 937 l 1215 937 l 1215 850 l 1215 764 l 1128 764 l 1042 764 l 1042 677 l 1042 590 l 955 590 l 868 590 l 868 503 l 868 416 l 955 416 l 1042 416 l 1042 330 l 1042 243 l 1128 243 l 1215 243 l 1215 156 l 1215 69 l 1302 69 l 1389 69 l 1389 -18 l 1389 -104 l 1128 -104 l 868 -104 l 868 -18 l 868 69 l 781 69 l 694 69 l 694 156 l 694 243 l 608 243 l 521 243 l 521 69 l 521 -104 l 347 -104 l 174 -104 l 174 503 z "},"l":{"ha":1389,"x_min":347,"x_max":1389,"o":"m 347 503 l 347 1111 l 521 1111 l 694 1111 l 694 590 l 694 69 l 1042 69 l 1389 69 l 1389 -18 l 1389 -104 l 868 -104 l 347 -104 l 347 503 z "},"m":{"ha":1389,"x_min":174,"x_max":1389,"o":"m 174 503 l 174 1111 l 347 1111 l 521 1111 l 521 1024 l 521 937 l 608 937 l 694 937 l 694 850 l 694 764 l 781 764 l 868 764 l 868 850 l 868 937 l 955 937 l 1042 937 l 1042 1024 l 1042 1111 l 1215 1111 l 1389 1111 l 1389 503 l 1389 -104 l 1215 -104 l 1042 -104 l 1042 156 l 1042 416 l 955 416 l 868 416 l 868 330 l 868 243 l 781 243 l 694 243 l 694 330 l 694 416 l 608 416 l 521 416 l 521 156 l 521 -104 l 347 -104 l 174 -104 l 174 503 z "},"n":{"ha":1389,"x_min":174,"x_max":1345,"o":"m 174 503 l 174 1111 l 347 1111 l 521 1111 l 521 1024 l 521 937 l 608 937 l 694 937 l 694 850 l 694 764 l 781 764 l 868 764 l 868 677 l 868 590 l 955 590 l 1042 590 l 1042 850 l 1042 1111 l 1194 1111 l 1345 1111 l 1345 503 l 1345 -104 l 1194 -104 l 1042 -104 l 1042 -18 l 1042 69 l 955 69 l 868 69 l 868 156 l 868 243 l 781 243 l 694 243 l 694 330 l 694 416 l 608 416 l 521 416 l 521 156 l 521 -104 l 347 -104 l 174 -104 l 174 503 z "},"o":{"ha":1389,"x_min":174,"x_max":1389,"o":"m 347 -18 l 347 69 l 260 69 l 174 69 l 174 503 l 174 937 l 260 937 l 347 937 l 347 1024 l 347 1111 l 781 1111 l 1215 1111 l 1215 1024 l 1215 937 l 1302 937 l 1389 937 l 1389 503 l 1389 69 l 1302 69 l 1215 69 l 1215 -18 l 1215 -104 l 781 -104 l 347 -104 l 347 -18 m 1042 503 l 1042 937 l 781 937 l 521 937 l 521 503 l 521 69 l 781 69 l 1042 69 l 1042 503 z "},"p":{"ha":1389,"x_min":174,"x_max":1389,"o":"m 174 503 l 174 1111 l 694 1111 l 1215 1111 l 1215 1024 l 1215 937 l 1302 937 l 1389 937 l 1389 677 l 1389 416 l 1302 416 l 1215 416 l 1215 330 l 1215 243 l 868 243 l 521 243 l 521 69 l 521 -104 l 347 -104 l 174 -104 l 174 503 m 1042 677 l 1042 937 l 781 937 l 521 937 l 521 677 l 521 416 l 781 416 l 1042 416 l 1042 677 z "},"q":{"ha":1389,"x_min":174,"x_max":1389,"o":"m 347 -18 l 347 69 l 260 69 l 174 69 l 174 503 l 174 937 l 260 937 l 347 937 l 347 1024 l 347 1111 l 781 1111 l 1215 1111 l 1215 1024 l 1215 937 l 1302 937 l 1389 937 l 1389 590 l 1389 243 l 1302 243 l 1215 243 l 1215 156 l 1215 69 l 1302 69 l 1389 69 l 1389 -18 l 1389 -104 l 1302 -104 l 1215 -104 l 1215 -18 l 1215 69 l 1128 69 l 1042 69 l 1042 -18 l 1042 -104 l 694 -104 l 347 -104 l 347 -18 m 868 156 l 868 243 l 781 243 l 694 243 l 694 330 l 694 416 l 868 416 l 1042 416 l 1042 677 l 1042 937 l 781 937 l 521 937 l 521 503 l 521 69 l 694 69 l 868 69 l 868 156 z "},"r":{"ha":1389,"x_min":174,"x_max":1389,"o":"m 174 503 l 174 1111 l 694 1111 l 1215 1111 l 1215 1024 l 1215 937 l 1302 937 l 1389 937 l 1389 677 l 1389 416 l 1215 416 l 1042 416 l 1042 330 l 1042 243 l 1128 243 l 1215 243 l 1215 156 l 1215 69 l 1302 69 l 1389 69 l 1389 -18 l 1389 -104 l 1128 -104 l 868 -104 l 868 -18 l 868 69 l 781 69 l 694 69 l 694 156 l 694 243 l 608 243 l 521 243 l 521 69 l 521 -104 l 347 -104 l 174 -104 l 174 503 m 868 503 l 868 590 l 955 590 l 1042 590 l 1042 764 l 1042 937 l 781 937 l 521 937 l 521 677 l 521 416 l 694 416 l 868 416 l 868 503 z "},"s":{"ha":1389,"x_min":174,"x_max":1389,"o":"m 347 -18 l 347 69 l 260 69 l 174 69 l 174 156 l 174 243 l 347 243 l 521 243 l 521 156 l 521 69 l 781 69 l 1042 69 l 1042 243 l 1042 416 l 694 416 l 347 416 l 347 503 l 347 590 l 260 590 l 174 590 l 174 764 l 174 937 l 260 937 l 347 937 l 347 1024 l 347 1111 l 694 1111 l 1042 1111 l 1042 1024 l 1042 937 l 1128 937 l 1215 937 l 1215 850 l 1215 764 l 1042 764 l 868 764 l 868 850 l 868 937 l 694 937 l 521 937 l 521 764 l 521 590 l 868 590 l 1215 590 l 1215 503 l 1215 416 l 1302 416 l 1389 416 l 1389 243 l 1389 69 l 1302 69 l 1215 69 l 1215 -18 l 1215 -104 l 781 -104 l 347 -104 l 347 -18 z "},"t":{"ha":1389,"x_min":347,"x_max":1389,"o":"m 694 416 l 694 937 l 521 937 l 347 937 l 347 1024 l 347 1111 l 868 1111 l 1389 1111 l 1389 1024 l 1389 937 l 1215 937 l 1042 937 l 1042 416 l 1042 -104 l 868 -104 l 694 -104 l 694 416 z "},"u":{"ha":1389,"x_min":174,"x_max":1389,"o":"m 347 -18 l 347 69 l 260 69 l 174 69 l 174 590 l 174 1111 l 347 1111 l 521 1111 l 521 590 l 521 69 l 781 69 l 1042 69 l 1042 590 l 1042 1111 l 1215 1111 l 1389 1111 l 1389 590 l 1389 69 l 1302 69 l 1215 69 l 1215 -18 l 1215 -104 l 781 -104 l 347 -104 l 347 -18 z "},"v":{"ha":1389,"x_min":174,"x_max":1389,"o":"m 694 -18 l 694 69 l 608 69 l 521 69 l 521 156 l 521 243 l 434 243 l 347 243 l 347 330 l 347 416 l 260 416 l 174 416 l 174 764 l 174 1111 l 347 1111 l 521 1111 l 521 850 l 521 590 l 608 590 l 694 590 l 694 503 l 694 416 l 781 416 l 868 416 l 868 503 l 868 590 l 955 590 l 1042 590 l 1042 850 l 1042 1111 l 1215 1111 l 1389 1111 l 1389 764 l 1389 416 l 1302 416 l 1215 416 l 1215 330 l 1215 243 l 1128 243 l 1042 243 l 1042 156 l 1042 69 l 955 69 l 868 69 l 868 -18 l 868 -104 l 781 -104 l 694 -104 l 694 -18 z "},"w":{"ha":1389,"x_min":174,"x_max":1389,"o":"m 174 503 l 174 1111 l 347 1111 l 521 1111 l 521 850 l 521 590 l 608 590 l 694 590 l 694 677 l 694 764 l 781 764 l 868 764 l 868 677 l 868 590 l 955 590 l 1042 590 l 1042 850 l 1042 1111 l 1215 1111 l 1389 1111 l 1389 503 l 1389 -104 l 1215 -104 l 1042 -104 l 1042 -18 l 1042 69 l 955 69 l 868 69 l 868 156 l 868 243 l 781 243 l 694 243 l 694 156 l 694 69 l 608 69 l 521 69 l 521 -18 l 521 -104 l 347 -104 l 174 -104 l 174 503 z "},"x":{"ha":1389,"x_min":174,"x_max":1389,"o":"m 174 69 l 174 243 l 260 243 l 347 243 l 347 330 l 347 416 l 434 416 l 521 416 l 521 503 l 521 590 l 434 590 l 347 590 l 347 677 l 347 764 l 260 764 l 174 764 l 174 937 l 174 1111 l 347 1111 l 521 1111 l 521 1024 l 521 937 l 608 937 l 694 937 l 694 850 l 694 764 l 781 764 l 868 764 l 868 850 l 868 937 l 955 937 l 1042 937 l 1042 1024 l 1042 1111 l 1215 1111 l 1389 1111 l 1389 937 l 1389 764 l 1302 764 l 1215 764 l 1215 677 l 1215 590 l 1128 590 l 1042 590 l 1042 503 l 1042 416 l 1128 416 l 1215 416 l 1215 330 l 1215 243 l 1302 243 l 1389 243 l 1389 69 l 1389 -104 l 1215 -104 l 1042 -104 l 1042 -18 l 1042 69 l 955 69 l 868 69 l 868 156 l 868 243 l 781 243 l 694 243 l 694 156 l 694 69 l 608 69 l 521 69 l 521 -18 l 521 -104 l 347 -104 l 174 -104 l 174 69 z "},"y":{"ha":1389,"x_min":347,"x_max":1389,"o":"m 694 156 l 694 416 l 608 416 l 521 416 l 521 503 l 521 590 l 434 590 l 347 590 l 347 850 l 347 1111 l 521 1111 l 694 1111 l 694 850 l 694 590 l 868 590 l 1042 590 l 1042 850 l 1042 1111 l 1215 1111 l 1389 1111 l 1389 850 l 1389 590 l 1302 590 l 1215 590 l 1215 503 l 1215 416 l 1128 416 l 1042 416 l 1042 156 l 1042 -104 l 868 -104 l 694 -104 l 694 156 z "},"z":{"ha":1389,"x_min":174,"x_max":1389,"o":"m 174 69 l 174 243 l 260 243 l 347 243 l 347 330 l 347 416 l 434 416 l 521 416 l 521 503 l 521 590 l 608 590 l 694 590 l 694 677 l 694 764 l 781 764 l 868 764 l 868 850 l 868 937 l 521 937 l 174 937 l 174 1024 l 174 1111 l 781 1111 l 1389 1111 l 1389 937 l 1389 764 l 1302 764 l 1215 764 l 1215 677 l 1215 590 l 1128 590 l 1042 590 l 1042 503 l 1042 416 l 955 416 l 868 416 l 868 330 l 868 243 l 781 243 l 694 243 l 694 156 l 694 69 l 1042 69 l 1389 69 l 1389 -18 l 1389 -104 l 781 -104 l 174 -104 l 174 69 z "},"{":{"ha":1389,"x_min":0,"x_max":0,"o":""},"©":{"ha":1389,"x_min":0,"x_max":1389,"o":"m 347 -191 l 347 -104 l 260 -104 l 174 -104 l 174 -18 l 174 69 l 87 69 l 0 69 l 0 416 l 0 764 l 87 764 l 174 764 l 174 850 l 174 937 l 260 937 l 347 937 l 347 1024 l 347 1111 l 694 1111 l 1042 1111 l 1042 1024 l 1042 937 l 1128 937 l 1215 937 l 1215 850 l 1215 764 l 1302 764 l 1389 764 l 1389 416 l 1389 69 l 1302 69 l 1215 69 l 1215 -18 l 1215 -104 l 1128 -104 l 1042 -104 l 1042 -191 l 1042 -278 l 694 -278 l 347 -278 l 347 -191 m 1042 -18 l 1042 69 l 1128 69 l 1215 69 l 1215 416 l 1215 764 l 1128 764 l 1042 764 l 1042 850 l 1042 937 l 694 937 l 347 937 l 347 850 l 347 764 l 260 764 l 174 764 l 174 416 l 174 69 l 260 69 l 347 69 l 347 -18 l 347 -104 l 694 -104 l 1042 -104 l 1042 -18 m 521 156 l 521 243 l 434 243 l 347 243 l 347 416 l 347 590 l 434 590 l 521 590 l 521 677 l 521 764 l 694 764 l 868 764 l 868 677 l 868 590 l 694 590 l 521 590 l 521 416 l 521 243 l 694 243 l 868 243 l 868 156 l 868 69 l 694 69 l 521 69 l 521 156 z "}}}
